<svg xmlns="http://www.w3.org/2000/svg" version="1.1" xmlns:xlink="http://www.w3.org/1999/xlink" xmlns:svgjs="http://svgjs.com/svgjs" width="512" height="512" x="0" y="0" viewBox="0 0 682.66669 682.66669" style="enable-background:new 0 0 512 512" xml:space="preserve" class=""><g><defs id="defs1606"><clipPath clipPathUnits="userSpaceOnUse" id="clipPath1616"><path d="M 0,512 H 512 V 0 H 0 Z" id="path1614" fill="#000000" data-original="#000000"></path></clipPath></defs><g id="g1608" transform="matrix(1.3333333,0,0,-1.3333333,0,682.66667)"><g id="g1610"><g id="g1612" clip-path="url(#clipPath1616)"><g id="g1618" transform="translate(497,315)"><path d="m 0,0 h -482 v -260 c 0,-22.091 17.908,-40 40,-40 h 402 c 22.092,0 40,17.909 40,40 z" style="stroke-width:30;stroke-linecap:round;stroke-linejoin:round;stroke-miterlimit:10;stroke-dasharray:none;stroke-opacity:1" id="path1620" fill="none" stroke="#000000" stroke-width="30" stroke-linecap="round" stroke-linejoin="round" stroke-miterlimit="10" stroke-dasharray="none" stroke-opacity="" data-original="#000000" class=""></path></g><g id="g1622" transform="translate(166,437)"><path d="M 0,0 H 180" style="stroke-width:30;stroke-linecap:round;stroke-linejoin:round;stroke-miterlimit:10;stroke-dasharray:none;stroke-opacity:1" id="path1624" fill="none" stroke="#000000" stroke-width="30" stroke-linecap="round" stroke-linejoin="round" stroke-miterlimit="10" stroke-dasharray="none" stroke-opacity="" data-original="#000000" class=""></path></g><g id="g1626" transform="translate(106,437)"><path d="m 0,0 h -51 c -22.092,0 -40,-17.908 -40,-40 v -82 h 482 v 82 c 0,22.092 -17.908,40 -40,40 h -51" style="stroke-width:30;stroke-linecap:round;stroke-linejoin:round;stroke-miterlimit:10;stroke-dasharray:none;stroke-opacity:1" id="path1628" fill="none" stroke="#000000" stroke-width="30" stroke-linecap="round" stroke-linejoin="round" stroke-miterlimit="10" stroke-dasharray="none" stroke-opacity="" data-original="#000000" class=""></path></g><g id="g1630" transform="translate(376,497)"><path d="m 0,0 v 0 c -16.568,0 -30,-13.432 -30,-30 v -60 c 0,-16.568 13.432,-30 30,-30 16.568,0 30,13.432 30,30 v 60 C 30,-13.432 16.568,0 0,0 Z" style="stroke-width:30;stroke-linecap:round;stroke-linejoin:round;stroke-miterlimit:10;stroke-dasharray:none;stroke-opacity:1" id="path1632" fill="none" stroke="#000000" stroke-width="30" stroke-linecap="round" stroke-linejoin="round" stroke-miterlimit="10" stroke-dasharray="none" stroke-opacity="" data-original="#000000" class=""></path></g><g id="g1634" transform="translate(136,497)"><path d="m 0,0 v 0 c 16.568,0 30,-13.432 30,-30 v -60 c 0,-16.568 -13.432,-30 -30,-30 -16.568,0 -30,13.432 -30,30 v 60 c 0,16.568 13.432,30 30,30 z" style="stroke-width:30;stroke-linecap:round;stroke-linejoin:round;stroke-miterlimit:10;stroke-dasharray:none;stroke-opacity:1" id="path1636" fill="none" stroke="#000000" stroke-width="30" stroke-linecap="round" stroke-linejoin="round" stroke-miterlimit="10" stroke-dasharray="none" stroke-opacity="" data-original="#000000" class=""></path></g><g id="g1638" transform="translate(306.7637,255)"><path d="M 0,0 H 38.473 V -180" style="stroke-width:30;stroke-linecap:round;stroke-linejoin:round;stroke-miterlimit:10;stroke-dasharray:none;stroke-opacity:1" id="path1640" fill="none" stroke="#000000" stroke-width="30" stroke-linecap="round" stroke-linejoin="round" stroke-miterlimit="10" stroke-dasharray="none" stroke-opacity="" data-original="#000000" class=""></path></g><g id="g1642" transform="translate(167.6084,218.7222)"><path d="m 0,0 c 4.062,20.678 22.286,36.278 44.155,36.278 24.853,0 45,-20.147 45,-45 0,-24.853 -20.147,-45 -45,-45" style="stroke-width:30;stroke-linecap:round;stroke-linejoin:round;stroke-miterlimit:10;stroke-dasharray:none;stroke-opacity:1" id="path1644" fill="none" stroke="#000000" stroke-width="30" stroke-linecap="round" stroke-linejoin="round" stroke-miterlimit="10" stroke-dasharray="none" stroke-opacity="" data-original="#000000" class=""></path></g><g id="g1646" transform="translate(211.7637,165)"><path d="M 0,0 C 24.853,0 45,-20.147 45,-45 45,-69.853 24.853,-90 0,-90 -22.724,-90 -41.513,-73.158 -44.566,-51.276 -44.853,-49.226 -45,-47.13 -45,-45" style="stroke-width:30;stroke-linecap:round;stroke-linejoin:round;stroke-miterlimit:10;stroke-dasharray:none;stroke-opacity:1" id="path1648" fill="none" stroke="#000000" stroke-width="30" stroke-linecap="round" stroke-linejoin="round" stroke-miterlimit="10" stroke-dasharray="none" stroke-opacity="" data-original="#000000" class=""></path></g></g></g></g></g></svg>