<svg xmlns="http://www.w3.org/2000/svg" width="20" height="18" viewBox="0 0 20 18">
  <path id="price_ic" d="M238.048,1689H239v10h-.952v3a.929.929,0,0,1-.286.7.846.846,0,0,1-.667.3H219.952a.846.846,0,0,1-.667-.3.929.929,0,0,1-.286-.7v-16a.929.929,0,0,1,.286-.7.846.846,0,0,1,.667-.3H237.1a.846.846,0,0,1,.667.3.929.929,0,0,1,.286.7Zm-1.9,10h-5.714a4.369,4.369,0,0,1-3.333-1.5,5.219,5.219,0,0,1-1.429-3.5,4.805,4.805,0,0,1,1.429-3.5,4.741,4.741,0,0,1,3.333-1.5h5.714v-2H220.9v14h15.238Zm.952-2v-6h-6.667a2.538,2.538,0,0,0-2,.9,2.949,2.949,0,0,0-.857,2.1,2.789,2.789,0,0,0,.857,2.1,2.68,2.68,0,0,0,2,.9Zm-6.667-4h2.857v2h-2.857Z" transform="translate(-219 -1685)" fill="#293039"/>
</svg>
