<svg xmlns="http://www.w3.org/2000/svg" width="31" height="29.78" viewBox="0 0 31 29.78">
  <g id="Group_1083" data-name="Group 1083" transform="translate(0.5 0.499)">
    <g id="Group_1084" data-name="Group 1084">
      <path id="Path_592" data-name="Path 592" d="M28.756,10.979a3.155,3.155,0,0,0-3.921.735c-.8,1.036-1.632,2.045-2.453,3.063-.07.086-.166.209-.255.212-.493.021-.988.01-1.5.01v-.352c0-1.181.021-2.363-.01-3.544a3.716,3.716,0,0,0-3.591-3.592c-1.346-.033-2.695-.03-4.041,0a3.606,3.606,0,0,0-3.469,2.839,16.585,16.585,0,0,0-.134,2.709.619.619,0,0,0,.609.686.629.629,0,0,0,.629-.694c.008-.537-.006-1.074.006-1.611a3.394,3.394,0,0,1,.087-.781,2.484,2.484,0,0,1,2.55-1.91q1.743-.013,3.485,0a2.828,2.828,0,0,1,.723.086,2.487,2.487,0,0,1,1.908,2.552c.009,1.132,0,2.265,0,3.4,0,.065-.013.131-.021.209a1.959,1.959,0,0,0-1.508.8,2.611,2.611,0,0,0-.346,1.684H12.5c0-.173,0-.318,0-.464A1.884,1.884,0,0,0,10.479,15c-.8,0-1.6-.008-2.4,0a.52.52,0,0,1-.464-.225c-.812-1.026-1.626-2.05-2.455-3.062A2.672,2.672,0,0,0,3.2,10.63a3.051,3.051,0,0,0-2.359.636A2.823,2.823,0,0,0,0,12.832v8.849c.015.023.041.045.045.07A3.174,3.174,0,0,0,3.29,24.382c1.112-.034,2.227.013,3.339-.017a.575.575,0,0,1,.651.438c.468,1.157.972,2.3,1.466,3.445.163.378.393.53.707.483.469-.07.655-.48.437-.989-.577-1.354-1.168-2.7-1.735-4.061a.807.807,0,0,0-.852-.556c-1.328.015-2.656.018-3.984,0a2.541,2.541,0,0,1-.991-.194,1.856,1.856,0,0,1-1.083-1.853q0-2.944,0-5.888c0-.655-.007-1.309,0-1.963a1.232,1.232,0,0,1,.958-1.3,1.918,1.918,0,0,1,2.068.67c.842,1.1,1.734,2.164,2.591,3.253a.969.969,0,0,0,.849.41c.917-.02,1.835-.01,2.753-.006.471,0,.73.195.772.585a6.256,6.256,0,0,1,0,.659c-.113.005-.208.013-.3.013-1.573,0-3.145,0-4.717.006a.5.5,0,0,1-.46-.234c-.472-.646-.955-1.285-1.438-1.923a.656.656,0,0,0-.751-.318.631.631,0,0,0-.259,1.048c.5.684,1.023,1.355,1.521,2.043a.859.859,0,0,1,.153.451c.017.614.005,1.23.007,1.845s.23.83.832.833c.732,0,1.465-.006,2.2,0A1.2,1.2,0,0,1,9.2,22.1c.107.282.195.572.291.859.58,1.738,1.152,3.479,1.749,5.211a1.086,1.086,0,0,0,.418.519.515.515,0,0,0,.642-.127.676.676,0,0,0,.122-.761q-1.005-3.009-2.006-6.02a2.6,2.6,0,0,0-.734-1.145A2.634,2.634,0,0,0,7.853,20H6.272V18.772H23.721V20c-.54,0-1.057,0-1.573,0a2.521,2.521,0,0,0-2.592,1.87q-.985,2.94-1.963,5.881a1.345,1.345,0,0,0-.075.37.59.59,0,0,0,.425.6.6.6,0,0,0,.707-.271,2.11,2.11,0,0,0,.154-.378q.969-2.9,1.934-5.8a1.276,1.276,0,0,1,1.413-1.014c.684,0,1.367,0,2.051,0,.564,0,.8-.238.8-.8,0-.615-.011-1.231.009-1.846a.978.978,0,0,1,.171-.5c.341-.488.708-.957,1.065-1.433.17-.227.353-.445.5-.684a.617.617,0,0,0-.411-.971.686.686,0,0,0-.667.338c-.479.641-.965,1.277-1.437,1.924a.5.5,0,0,1-.46.233C22.2,17.5,20.631,17.5,19.059,17.5c-.095,0-.19-.008-.309-.013v-.309c0-.751.183-.937.93-.936.869,0,1.738-.013,2.606.006a.96.96,0,0,0,.849-.408c.852-1.081,1.724-2.146,2.577-3.226a1.782,1.782,0,0,1,1.588-.749c.97.045,1.453.494,1.454,1.47q0,3.854,0,7.706a2.738,2.738,0,0,1-.079.694,1.869,1.869,0,0,1-1.932,1.389c-1.338.007-2.676.015-4.013-.005a.838.838,0,0,0-.894.584c-.552,1.333-1.132,2.655-1.7,3.982a1.55,1.55,0,0,0-.107.332.589.589,0,0,0,.518.71c.314.047.545-.105.708-.483.516-1.2,1.032-2.4,1.537-3.6a.37.37,0,0,1,.4-.273c1.24.012,2.481.017,3.721,0a3.053,3.053,0,0,0,2.351-1.125A3.759,3.759,0,0,0,30,21.681V12.832c-.018-.064-.04-.128-.054-.193a2.412,2.412,0,0,0-1.19-1.66" fill="#293039" stroke="#293039" stroke-width="1"/>
      <path id="Path_593" data-name="Path 593" d="M5.387,8.4a3.074,3.074,0,0,0,.035-4.247,3.114,3.114,0,0,0-4.636.04A3.825,3.825,0,0,0,0,5.859V6.68A3.905,3.905,0,0,0,.826,8.359,3.13,3.13,0,0,0,5.387,8.4M3.143,4.383a1.871,1.871,0,0,1-.006,3.742,1.871,1.871,0,1,1,.006-3.742" fill="#293039" stroke="#293039" stroke-width="1"/>
      <path id="Path_594" data-name="Path 594" d="M29.943,5.666A3.117,3.117,0,1,0,24.5,8.259a3.1,3.1,0,0,0,4.747.009A3.935,3.935,0,0,0,30,6.679v-.82a1.931,1.931,0,0,1-.057-.193M26.879,8.124a1.871,1.871,0,1,1,1.87-1.864,1.881,1.881,0,0,1-1.87,1.864" fill="#293039" stroke="#293039" stroke-width="1"/>
      <path id="Path_595" data-name="Path 595" d="M15,6.252a3.126,3.126,0,1,0-3.115-3.116A3.137,3.137,0,0,0,15,6.252m0-5a1.87,1.87,0,1,1-1.871,1.89A1.893,1.893,0,0,1,15,1.251" fill="#293039" stroke="#293039" stroke-width="1"/>
      <rect id="Rectangle_300" data-name="Rectangle 300" width="1.214" height="1.221" transform="translate(14.396 10.02)" fill="#293039" stroke="#293039" stroke-width="1"/>
      <path id="Path_596" data-name="Path 596" d="M14.371,20.329v8.109a.528.528,0,0,0,.006.174c.02.053.072.133.111.134.375.01.751.006,1.117.006V20.009H14.371Z" fill="#293039" stroke="#293039" stroke-width="1"/>
    </g>
  </g>
</svg>
