<svg xmlns="http://www.w3.org/2000/svg" width="20" height="18" viewBox="0 0 20 18">
  <path id="student" d="M210.733,1096a4.239,4.239,0,0,0-4.167,4.286h0a4.287,4.287,0,0,0,1.5,3.257,6.129,6.129,0,0,0-3.167,5.314v1.714h1.667v-1.714a4.239,4.239,0,0,1,4.167-4.286h.333a5.092,5.092,0,0,0,1.083,1.543,6.055,6.055,0,0,0-3.083,5.314V1114h1.667v-2.571a4.168,4.168,0,1,1,8.333,0V1114h1.667v-2.571a6.055,6.055,0,0,0-3.083-5.314,3.969,3.969,0,0,0,1.083-1.543h.333a4.239,4.239,0,0,1,4.167,4.286v1.714H224.9v-1.714a5.966,5.966,0,0,0-3.167-5.314,4.287,4.287,0,0,0,1.5-3.257h0a4.239,4.239,0,0,0-4.167-4.286,4.284,4.284,0,0,0-3.917,2.571h-.5A4.284,4.284,0,0,0,210.733,1096Zm2.333,3a2.511,2.511,0,0,0-2.25-1.286,2.572,2.572,0,0,0,0,5.143A4.171,4.171,0,0,1,213.067,1099Zm6,3.857a4.493,4.493,0,0,0-2.25-3.857,2.511,2.511,0,0,1,2.25-1.286,2.572,2.572,0,0,1,0,5.143Zm-4.167,2.571a2.572,2.572,0,1,0-2.5-2.571A2.543,2.543,0,0,0,214.9,1105.429Z" transform="translate(-204.9 -1096)" fill="#293039" fill-rule="evenodd"/>
</svg>
