<svg xmlns="http://www.w3.org/2000/svg" xmlns:xlink="http://www.w3.org/1999/xlink" width="30" height="30" viewBox="0 0 30 30">
  <defs>
    <clipPath id="clip-path">
      <rect id="Rectangle_299" data-name="Rectangle 299" width="30" height="30" fill="#144067"/>
    </clipPath>
  </defs>
  <g id="Group_1080" data-name="Group 1080" transform="translate(0 0)">
    <g id="Group_1080-2" data-name="Group 1080" transform="translate(0 0)" clip-path="url(#clip-path)">
      <path id="Path_591" data-name="Path 591" d="M15,13.5a7.036,7.036,0,0,1,5.25,2.25A7.639,7.639,0,0,1,22.5,21v9h-3V21a4.841,4.841,0,0,0-1.2-3.15,3.776,3.776,0,0,0-3-1.35H15a4.841,4.841,0,0,0-3.15,1.2,3.776,3.776,0,0,0-1.35,3V30h-3V21a7.036,7.036,0,0,1,2.25-5.25A7.036,7.036,0,0,1,15,13.5M5.25,18a2.924,2.924,0,0,1,1.2.15A6.218,6.218,0,0,0,6,20.55v.6C5.85,21,5.7,21,5.4,21H5.25a1.926,1.926,0,0,0-1.5.6A2.4,2.4,0,0,0,3,23.1V30H0V23.25A5.919,5.919,0,0,1,1.5,19.5,5.919,5.919,0,0,1,5.25,18m19.5,0a5.919,5.919,0,0,1,3.75,1.5A4.76,4.76,0,0,1,30,23.25V30H27V23.25a1.926,1.926,0,0,0-.6-1.5A2.4,2.4,0,0,0,24.9,21h-.15a1.352,1.352,0,0,0-.75.15V21a8.733,8.733,0,0,0-.45-2.85,2.924,2.924,0,0,1,1.2-.15M5.25,9a4.312,4.312,0,0,1,2.7,1.05A3.4,3.4,0,0,1,9,12.75a4.312,4.312,0,0,1-1.05,2.7,3.4,3.4,0,0,1-2.7,1.05,4.312,4.312,0,0,1-2.7-1.05,3.4,3.4,0,0,1-1.05-2.7,4.312,4.312,0,0,1,1.05-2.7A3.4,3.4,0,0,1,5.25,9m19.5,0a4.312,4.312,0,0,1,2.7,1.05,3.4,3.4,0,0,1,1.05,2.7,4.312,4.312,0,0,1-1.05,2.7,3.4,3.4,0,0,1-2.7,1.05,4.313,4.313,0,0,1-2.7-1.05A3.4,3.4,0,0,1,21,12.75a4.313,4.313,0,0,1,1.05-2.7A3.4,3.4,0,0,1,24.75,9M5.25,12a1.511,1.511,0,0,0-.45.15.75.75,0,0,0,0,1.2.551.551,0,0,0,.45.15,1.511,1.511,0,0,0,.45-.15.75.75,0,0,0,0-1.2A1.511,1.511,0,0,0,5.25,12m19.5,0a1.511,1.511,0,0,0-.45.15.75.75,0,0,0,0,1.2.551.551,0,0,0,.45.15,1.511,1.511,0,0,0,.45-.15.75.75,0,0,0,0-1.2,1.511,1.511,0,0,0-.45-.15M15,0a5.447,5.447,0,0,1,4.2,1.8A6.625,6.625,0,0,1,21,6a5.676,5.676,0,0,1-1.8,4.2A6.625,6.625,0,0,1,15,12a5.676,5.676,0,0,1-4.2-1.8A6.625,6.625,0,0,1,9,6a5.676,5.676,0,0,1,1.8-4.2A6.307,6.307,0,0,1,15,0m0,3a2.962,2.962,0,0,0-2.1.9,3,3,0,1,0,4.2,0A2.962,2.962,0,0,0,15,3" transform="translate(0 0)" fill="#144067"/>
    </g>
  </g>
</svg>
