<svg id="osiris-labs_instructor" xmlns="http://www.w3.org/2000/svg" width="230" height="87" viewBox="0 0 230 87">
  <path id="Path_235" data-name="Path 235" d="M20,61.174c.1-.4.2-.8.281-1.206a13.629,13.629,0,0,1,15.46-11.136c6.944,1.021,12.074,7.762,11.429,15.031C46.546,70.9,40.982,76.409,34.4,76.732A13.8,13.8,0,0,1,20.143,64.7a3.642,3.642,0,0,0-.153-.514C20,63.177,20,62.176,20,61.174Zm20.27,1.549a6.65,6.65,0,1,0-6.708,6.833A6.774,6.774,0,0,0,40.267,62.723Z" transform="translate(-19.99 -21.954)"/>
  <path id="Path_236" data-name="Path 236" d="M260.889,77.1c-.747-.165-1.508-.277-2.242-.494a8.017,8.017,0,0,1-5.053-11.387,8.175,8.175,0,0,1,6.075-4.237c2.281-.455,4.593-.751,6.887-1.107.952-.152,1.923-.283,2.255-1.43a3.143,3.143,0,0,0-1.137-3.077,5.156,5.156,0,0,0-8.056,2.88c-.032.152-.077.3-.141.54-2.051-.448-4.089-.89-6.248-1.364a19.316,19.316,0,0,1,.537-2.089,9.977,9.977,0,0,1,7.308-6.352,14.917,14.917,0,0,1,7.89.185,9.036,9.036,0,0,1,6.791,9.041c.077,4.217.006,8.435.038,12.652.013,1.759.121,3.519.185,5.37-.153.013-.371.053-.581.053-1.687.007-3.373-.026-5.06.02-.613.02-.811-.224-.837-.8-.032-.7-.109-1.4-.179-2.24-.255.31-.422.5-.575.692a8.5,8.5,0,0,1-5.424,2.985c-.249.04-.492.112-.741.165C262.013,77.1,261.451,77.1,260.889,77.1Zm8.145-12.843c-.428.026-.581.02-.728.046-1.891.3-3.782.573-5.66.936a4.354,4.354,0,0,0-1.661.738,2.961,2.961,0,0,0-1.144,2.992,2.814,2.814,0,0,0,1.8,2.359,5.234,5.234,0,0,0,6.816-3.189A28.182,28.182,0,0,0,269.034,64.254Z" transform="translate(-104.035 -21.904)"/>
  <path id="Path_237" data-name="Path 237" d="M356.337,77.1c-.722-.165-1.45-.283-2.159-.494a9.273,9.273,0,0,1-6.951-7.235,4.622,4.622,0,0,1-.057-.6c1.993-.455,3.948-.9,5.9-1.338a1.419,1.419,0,0,1,.141.257,4.685,4.685,0,0,0,6.446,3.519,2.462,2.462,0,0,0,1.712-2.3,2.178,2.178,0,0,0-1.591-2.267c-1.533-.494-3.118-.811-4.663-1.259a16.941,16.941,0,0,1-2.888-1.021,7.9,7.9,0,0,1-2.485-12.3,9.143,9.143,0,0,1,5.1-3.156,12,12,0,0,1,8.228.837,8.422,8.422,0,0,1,4.727,6.576c-1.961.461-3.865.9-5.813,1.357-.07-.178-.128-.316-.172-.455a4.208,4.208,0,0,0-5.743-2.833,2.58,2.58,0,0,0-1.763,2.511,2.349,2.349,0,0,0,2.019,2.168c1.418.349,2.843.633,4.267.962a11.43,11.43,0,0,1,4.408,1.944,7.589,7.589,0,0,1,2.99,4.8,3.669,3.669,0,0,0,.16.514v1.9a1.74,1.74,0,0,0-.121.277,8.6,8.6,0,0,1-6.695,7.209c-.581.165-1.182.283-1.776.422C358.484,77.1,357.41,77.1,356.337,77.1Z" transform="translate(-138.17 -21.905)"/>
  <path id="Path_238" data-name="Path 238" d="M20,30.44H47.016v6.8H20Z" transform="translate(-19.994 -15.732)"/>
  <path id="Path_239" data-name="Path 239" d="M39.617,8.12c.2.092.4.2.613.283a4.509,4.509,0,0,1,2.792,5.034,4.32,4.32,0,0,1-8.541-.02A4.548,4.548,0,0,1,37.247,8.43c.23-.092.46-.2.69-.3C38.492,8.12,39.055,8.12,39.617,8.12Z" transform="translate(-25.198 -8.12)"/>
  <path id="Path_240" data-name="Path 240" d="M306.745,67.117v3.025H299.98V30.69h6.887V45.866a9.953,9.953,0,0,1,4.676-2.84c4.9-1.344,11.825-.007,14.336,7.848A17.177,17.177,0,0,1,324.7,64.929a11.459,11.459,0,0,1-13.352,5.463C309.716,69.884,309,69.383,306.745,67.117ZM319.8,57.008c-.128-1.081-.166-1.819-.307-2.537a6.222,6.222,0,0,0-5.353-5.3,6.111,6.111,0,0,0-6.657,3.809,9.376,9.376,0,0,0,.083,7.591,5.91,5.91,0,0,0,5.884,3.749,5.8,5.8,0,0,0,5.635-4.1A22.6,22.6,0,0,0,319.8,57.008Z" transform="translate(-121.112 -15.818)"/>
  <path id="Path_241" data-name="Path 241" d="M196.592,56.113c-1.948.455-3.833.9-5.762,1.344-.077-.2-.153-.356-.2-.521a4.19,4.19,0,0,0-5.852-2.682,2.522,2.522,0,0,0-1.584,2.464,2.3,2.3,0,0,0,1.91,2.089c1.437.362,2.907.593,4.331,1a15.706,15.706,0,0,1,3.431,1.311c5.417,3.038,4.938,9.792,1.45,12.955a9.955,9.955,0,0,1-3.194,1.957,12.67,12.67,0,0,1-9.583-.3,8.9,8.9,0,0,1-5.43-6.774c-.026-.125-.026-.25-.051-.468,1.98-.448,3.935-.89,5.852-1.324.1.105.147.138.153.184a4.637,4.637,0,0,0,6.12,3.67,2.549,2.549,0,0,0,2.012-2.379,2.3,2.3,0,0,0-1.789-2.366c-1.412-.448-2.881-.712-4.3-1.127a17.394,17.394,0,0,1-3.1-1.107,7.818,7.818,0,0,1-2.7-11.775,8.823,8.823,0,0,1,4.344-3.235,11.808,11.808,0,0,1,9.257.521,8.211,8.211,0,0,1,4.549,5.733C196.522,55.54,196.541,55.8,196.592,56.113Z" transform="translate(-76.357 -21.835)"/>
  <path id="Path_242" data-name="Path 242" d="M66.82,68.5,72.7,67.173a1.082,1.082,0,0,1,.128.283c.537,3.334,3.712,4.191,6.043,3.591a2.529,2.529,0,0,0,2.07-2.333,2.3,2.3,0,0,0-1.8-2.432c-1.412-.448-2.881-.705-4.306-1.12a17.692,17.692,0,0,1-3.169-1.14,7.813,7.813,0,0,1-2.7-11.617,8.623,8.623,0,0,1,3.661-3.031,11.615,11.615,0,0,1,10.3.356,8.276,8.276,0,0,1,4.421,6.385c-1.942.455-3.846.9-5.8,1.357-.07-.185-.134-.316-.172-.461a4.118,4.118,0,0,0-5.865-2.7,3.44,3.44,0,0,0-1.463,1.6c-.543,1.292.307,2.544,1.872,2.939,1.412.356,2.856.586,4.261.975a15.729,15.729,0,0,1,3.162,1.16c5.82,3.058,5.258,10.253,1.316,13.508a9.661,9.661,0,0,1-4.957,2.142,13.248,13.248,0,0,1-7.724-1,9.014,9.014,0,0,1-5.111-6.5C66.852,68.945,66.846,68.761,66.82,68.5Z" transform="translate(-36.903 -21.837)"/>
  <path id="Path_243" data-name="Path 243" d="M232.79,30.66h6.963V70.138H232.79Z" transform="translate(-96.846 -15.807)"/>
  <path id="Path_244" data-name="Path 244" d="M143.479,56.631c-.92-.046-1.731-.138-2.543-.112-3.6.138-5.775,2.247-6.158,5.944a17.127,17.127,0,0,0-.1,1.812q-.01,5.5-.006,10.991v.982H127.7V49.58h6.74v3.67a4.293,4.293,0,0,0,.332-.382c1.8-3.123,5.379-3.789,8.324-3.466a.612.612,0,0,1,.371.448C143.486,52.09,143.479,54.324,143.479,56.631Z" transform="translate(-58.891 -22.174)"/>
  <path id="Path_245" data-name="Path 245" d="M106.69,49.71h6.931V76.384H106.69Z" transform="translate(-51.303 -22.304)"/>
  <path id="Path_246" data-name="Path 246" d="M165.467,76.408H158.58V49.76h6.887Z" transform="translate(-70.044 -22.321)"/>
  <path id="Path_247" data-name="Path 247" d="M113.662,30.52V37.2h-7V30.52Z" transform="translate(-51.292 -15.76)"/>
  <path id="Path_248" data-name="Path 248" d="M158.5,37.2V30.52h7V37.2Z" transform="translate(-70.015 -15.76)"/>
  <text id="Admin" transform="translate(230 81)" fill="#293039" font-size="16" font-family="Poppins-SemiBold, Poppins" font-weight="600" letter-spacing="0.04em"><tspan x="-56.08" y="0">ADMIN</tspan></text>
</svg>
