<svg xmlns="http://www.w3.org/2000/svg" width="100" height="100" viewBox="0 0 100 100">
    <g id="Group_1066" data-name="Group 1066" transform="translate(-1720 -98)">
        <rect id="Rectangle_293" data-name="Rectangle 293" width="100" height="100" transform="translate(1720 98)" fill="none"/>
        <g id="Group_1065" data-name="Group 1065" transform="translate(-85 6)">
            <path id="Path_591" data-name="Path 591" d="M41.2,8.12c.267.12.525.258.8.37a5.881,5.881,0,0,1,3.641,6.567A5.635,5.635,0,0,1,34.5,15.03,5.932,5.932,0,0,1,38.11,8.524c.3-.12.6-.258.9-.4C39.735,8.12,40.468,8.12,41.2,8.12Z" transform="translate(1814.606 97.88)" fill="#fff"/>
            <path id="Path_589" data-name="Path 589" d="M20,64.976c.125-.524.267-1.049.367-1.573A17.778,17.778,0,0,1,40.53,48.878C49.588,50.21,56.279,59,55.437,68.483c-.808,9.179-8.066,16.365-16.649,16.786a18.005,18.005,0,0,1-18.6-15.694,4.751,4.751,0,0,0-.2-.67C20,67.589,20,66.283,20,64.976ZM46.438,67a8.674,8.674,0,1,0-8.749,8.913A8.835,8.835,0,0,0,46.438,67Z" transform="translate(1817.01 92.181)" fill="#fff"/>
            <path id="Path_590" data-name="Path 590" d="M20,30.44H55.239v8.87H20Z" transform="translate(1817.008 94.744)" fill="#fff"/>
        </g>
    </g>
</svg>
