<svg id="osiris-labs_instructor" xmlns="http://www.w3.org/2000/svg" width="300" height="72" viewBox="0 0 300 72">
  <path id="Path_235" data-name="Path 235" d="M20,64.976c.125-.524.267-1.049.367-1.573A17.778,17.778,0,0,1,40.53,48.878C49.588,50.21,56.279,59,55.437,68.483c-.808,9.179-8.066,16.365-16.649,16.786a18.005,18.005,0,0,1-18.6-15.694,4.751,4.751,0,0,0-.2-.67C20,67.589,20,66.283,20,64.976ZM46.438,67a8.674,8.674,0,1,0-8.749,8.913A8.835,8.835,0,0,0,46.438,67Z" transform="translate(-19.99 -13.819)"/>
  <path id="Path_236" data-name="Path 236" d="M263.382,85.79c-.975-.215-1.966-.361-2.925-.645a10.457,10.457,0,0,1-6.591-14.852c1.683-3.257,4.558-4.856,7.924-5.527,2.975-.593,5.991-.98,8.983-1.444,1.242-.2,2.508-.37,2.941-1.865a4.1,4.1,0,0,0-1.483-4.014A6.725,6.725,0,0,0,261.724,61.2c-.042.2-.1.4-.183.7-2.675-.584-5.333-1.16-8.149-1.779a25.192,25.192,0,0,1,.7-2.725,13.013,13.013,0,0,1,9.533-8.286,19.457,19.457,0,0,1,10.291.241c5.491,1.581,8.749,5.87,8.858,11.792.1,5.5.008,11,.05,16.5.017,2.295.158,4.59.242,7-.2.017-.483.069-.758.069-2.2.009-4.4-.034-6.6.026-.8.026-1.058-.292-1.092-1.04-.042-.911-.142-1.822-.233-2.922-.333.4-.55.653-.75.9a11.081,11.081,0,0,1-7.074,3.894c-.325.052-.642.146-.967.215C264.848,85.79,264.115,85.79,263.382,85.79Zm10.624-16.752c-.558.034-.758.026-.95.06-2.466.4-4.933.748-7.383,1.22a5.68,5.68,0,0,0-2.166.963,3.862,3.862,0,0,0-1.492,3.9,3.67,3.67,0,0,0,2.35,3.077,6.827,6.827,0,0,0,8.891-4.16A36.764,36.764,0,0,0,274.006,69.038Z" transform="translate(-58.791 -13.799)"/>
  <path id="Path_237" data-name="Path 237" d="M359.127,85.79c-.941-.215-1.891-.37-2.816-.645-4.725-1.392-7.924-4.375-9.066-9.437a6.03,6.03,0,0,1-.075-.782c2.6-.593,5.15-1.169,7.7-1.745a1.85,1.85,0,0,1,.183.335,6.111,6.111,0,0,0,8.408,4.59,3.212,3.212,0,0,0,2.233-3,2.841,2.841,0,0,0-2.075-2.957c-2-.645-4.066-1.057-6.083-1.642a22.1,22.1,0,0,1-3.766-1.332,10.3,10.3,0,0,1-3.241-16.047,11.926,11.926,0,0,1,6.658-4.117A15.649,15.649,0,0,1,367.918,50.1a10.985,10.985,0,0,1,6.166,8.578c-2.558.6-5.041,1.178-7.583,1.771-.092-.232-.167-.413-.225-.593a5.488,5.488,0,0,0-7.491-3.7,3.365,3.365,0,0,0-2.3,3.275,3.064,3.064,0,0,0,2.633,2.828c1.85.456,3.708.825,5.566,1.255a14.909,14.909,0,0,1,5.75,2.536,9.9,9.9,0,0,1,3.9,6.266,4.785,4.785,0,0,0,.208.67v2.475a2.269,2.269,0,0,0-.158.361c-.908,5.114-4,8.071-8.733,9.4-.758.215-1.542.37-2.316.55C361.927,85.79,360.527,85.79,359.127,85.79Z" transform="translate(-74.543 -13.799)"/>
  <path id="Path_238" data-name="Path 238" d="M20,30.44H55.239v8.87H20Z" transform="translate(-19.992 -11.256)"/>
  <path id="Path_239" data-name="Path 239" d="M41.2,8.12c.267.12.525.258.8.37a5.881,5.881,0,0,1,3.641,6.567A5.635,5.635,0,0,1,34.5,15.03,5.932,5.932,0,0,1,38.11,8.524c.3-.12.6-.258.9-.4C39.735,8.12,40.468,8.12,41.2,8.12Z" transform="translate(-22.394 -8.12)"/>
  <path id="Path_240" data-name="Path 240" d="M308.8,78.2v3.945H299.98V30.69h8.983V50.484a12.982,12.982,0,0,1,6.1-3.7c6.391-1.753,15.424-.009,18.7,10.237a22.4,22.4,0,0,1-1.533,18.333,14.946,14.946,0,0,1-17.415,7.125C312.679,81.813,311.746,81.16,308.8,78.2Zm17.032-13.185c-.167-1.41-.217-2.372-.4-3.309-.767-3.876-3.466-6.532-6.983-6.919a7.97,7.97,0,0,0-8.683,4.968,12.23,12.23,0,0,0,.108,9.9,7.708,7.708,0,0,0,7.674,4.891A7.561,7.561,0,0,0,324.9,69.2,29.483,29.483,0,0,0,325.836,65.018Z" transform="translate(-66.674 -11.291)"/>
  <path id="Path_241" data-name="Path 241" d="M202.841,58.481c-2.541.593-5,1.169-7.516,1.753-.1-.258-.2-.464-.258-.679a5.466,5.466,0,0,0-7.633-3.5,3.29,3.29,0,0,0-2.067,3.215A3,3,0,0,0,187.859,62c1.875.473,3.791.774,5.65,1.306a20.486,20.486,0,0,1,4.475,1.71c7.066,3.962,6.441,12.772,1.892,16.9a12.984,12.984,0,0,1-4.166,2.553,16.526,16.526,0,0,1-12.5-.387,11.605,11.605,0,0,1-7.083-8.836c-.033-.163-.033-.327-.067-.61,2.583-.584,5.133-1.16,7.633-1.728.125.138.192.18.2.241.917,3.945,4.191,5.913,7.983,4.787a3.325,3.325,0,0,0,2.625-3.1,3,3,0,0,0-2.333-3.086c-1.842-.584-3.758-.928-5.608-1.47a22.689,22.689,0,0,1-4.041-1.444A10.2,10.2,0,0,1,179,53.47a11.508,11.508,0,0,1,5.666-4.22,15.4,15.4,0,0,1,12.074.679,10.71,10.71,0,0,1,5.933,7.478C202.749,57.733,202.774,58.068,202.841,58.481Z" transform="translate(-46.012 -13.77)"/>
  <path id="Path_242" data-name="Path 242" d="M66.82,74.632,74.494,72.9a1.411,1.411,0,0,1,.167.37c.7,4.349,4.841,5.466,7.883,4.684a3.3,3.3,0,0,0,2.7-3.043,3,3,0,0,0-2.35-3.172c-1.842-.584-3.758-.92-5.616-1.461A23.077,23.077,0,0,1,73.144,68.8a10.191,10.191,0,0,1-3.516-15.153A11.247,11.247,0,0,1,74.4,49.689a15.15,15.15,0,0,1,13.441.464,10.8,10.8,0,0,1,5.766,8.329c-2.533.593-5.016,1.178-7.566,1.771-.092-.241-.175-.413-.225-.6a5.372,5.372,0,0,0-7.649-3.524,4.487,4.487,0,0,0-1.908,2.089c-.708,1.685.4,3.318,2.441,3.833,1.842.464,3.725.765,5.558,1.272a20.516,20.516,0,0,1,4.125,1.513c7.591,3.988,6.858,13.374,1.717,17.62a12.6,12.6,0,0,1-6.466,2.793,17.279,17.279,0,0,1-10.074-1.3,11.758,11.758,0,0,1-6.666-8.483C66.862,75.216,66.853,74.976,66.82,74.632Z" transform="translate(-27.798 -13.771)"/>
  <path id="Path_243" data-name="Path 243" d="M232.79,30.66h9.083V82.152H232.79Z" transform="translate(-55.471 -11.287)"/>
  <path id="Path_244" data-name="Path 244" d="M148.282,58.853c-1.2-.06-2.258-.18-3.316-.146-4.7.18-7.533,2.931-8.033,7.753a22.34,22.34,0,0,0-.125,2.364q-.013,7.168-.008,14.336V84.44h-9.1V49.656h8.791v4.787a5.6,5.6,0,0,0,.433-.5c2.341-4.074,7.016-4.942,10.857-4.521a.8.8,0,0,1,.483.584C148.29,52.931,148.282,55.845,148.282,58.853Z" transform="translate(-37.949 -13.91)"/>
  <path id="Path_245" data-name="Path 245" d="M106.69,49.71h9.041V84.5H106.69Z" transform="translate(-34.446 -13.964)"/>
  <path id="Path_246" data-name="Path 246" d="M167.563,84.518H158.58V49.76h8.983Z" transform="translate(-43.098 -13.971)"/>
  <path id="Path_247" data-name="Path 247" d="M115.793,30.52v8.715H106.66V30.52Z" transform="translate(-34.441 -11.267)"/>
  <path id="Path_248" data-name="Path 248" d="M158.5,39.235V30.52h9.124v8.715Z" transform="translate(-43.085 -11.267)"/>
</svg>
