<svg xmlns="http://www.w3.org/2000/svg" width="20" height="20" viewBox="0 0 20 20">
  <path id="equipment_ic" d="M2071.368,536.775,2069.146,539l2.963,2.963L2084.066,530l-2.963-2.963-2.222,2.222,1.482,1.482-1.482,1.481-1.481-1.481-1.481,1.481,1.481,1.482-1.481,1.481-1.481-1.481-1.481,1.481,1.481,1.482-1.481,1.482-1.587-1.376Zm10.37-11.958,4.445,4.444a1.023,1.023,0,0,1,0,1.482l-13.439,13.439a1.023,1.023,0,0,1-1.481,0l-4.445-4.444a1.023,1.023,0,0,1,0-1.482l13.439-13.439a.96.96,0,0,1,.741-.317A.824.824,0,0,1,2081.738,524.818Zm-2.963,16.508,1.481-1.482,2.328,2.328h1.481v-1.482l-2.328-2.328,1.482-1.482,2.751,2.751v4.444h-4.444l-2.751-2.751Zm-8.995-8.995-2.963-2.963c-.106-.106-.211-.212-.211-.317a.9.9,0,0,1,0-.847c0-.106.105-.212.211-.317l2.963-2.963a1.023,1.023,0,0,1,1.481,0l2.963,2.963-1.482,1.481-2.222-2.222-1.482,1.482,2.222,2.222Z" transform="translate(-2066.5 -524.5)" fill="#293039"/>
</svg>
