<svg xmlns="http://www.w3.org/2000/svg" width="26" height="15" viewBox="0 0 26 15">
  <g id="eye" transform="translate(0 0)">
    <path id="Path_1497" data-name="Path 1497" d="M26,7.7c-.27.383-.513.788-.816,1.144A18.15,18.15,0,0,1,19.33,13.51a14.225,14.225,0,0,1-5,1.428,14.4,14.4,0,0,1-9.383-2.415,19.532,19.532,0,0,1-4.7-4.378.965.965,0,0,1,0-1.29A19.109,19.109,0,0,1,5.824,1.941,14.467,14.467,0,0,1,11.7.062,14.241,14.241,0,0,1,20.262,1.99a19.036,19.036,0,0,1,5.5,4.885A2.9,2.9,0,0,1,26,7.3Zm-12.943,5.1a5.384,5.384,0,0,0,5.407-5.436,5.4,5.4,0,0,0-5.495-5.149,5.37,5.37,0,0,0-5.43,5.434,5.4,5.4,0,0,0,5.518,5.151" transform="translate(0 0)" fill="#144067"/>
    <path id="Path_1498" data-name="Path 1498" d="M157.362,75.043a2.944,2.944,0,1,1-2.875-2.855,2.891,2.891,0,0,1,2.875,2.855" transform="translate(-141.416 -67.541)" fill="#144067"/>
  </g>
</svg>
