<svg id="Group_1087" data-name="Group 1087" xmlns="http://www.w3.org/2000/svg" xmlns:xlink="http://www.w3.org/1999/xlink" width="26" height="20" viewBox="0 0 26 20">
  <defs>
    <clipPath id="clip-path">
      <rect id="Rectangle_310" data-name="Rectangle 310" width="26" height="20" fill="#144067"/>
    </clipPath>
  </defs>
  <g id="Group_1068" data-name="Group 1068" clip-path="url(#clip-path)">
    <path id="Path_1494" data-name="Path 1494" d="M23.292.938a7.763,7.763,0,0,1-.507.6C14.811,9.3,12.251,11.773,4.275,19.527c-.078.076-.154.152-.234.226a.773.773,0,0,1-1.278-.22.617.617,0,0,0-.055-.076v-.395A7.523,7.523,0,0,1,3.2,18.48c1.742-1.7.782-.76,2.528-2.458.068-.066.132-.136.209-.214a22.651,22.651,0,0,1-3.549-2.873A18.282,18.282,0,0,1,0,10.2V9.8c.1-.148.193-.306.31-.443C.758,8.834,1.2,8.3,1.67,7.8A21.011,21.011,0,0,1,8.182,2.96a10.968,10.968,0,0,1,8.876-.314c.562.22,1.108.48,1.711.743a1.726,1.726,0,0,1,.154-.193c1.836-1.787.963-.937,2.8-2.719a7.653,7.653,0,0,1,.6-.477h.406a1.136,1.136,0,0,1,.559.543Zm-7.143,4.9a5.4,5.4,0,0,0-7.1.69,4.981,4.981,0,0,0-.336,6.51L9.785,12a3.625,3.625,0,0,1,.426-4.518A3.778,3.778,0,0,1,12.257,6.37a3.89,3.89,0,0,1,2.813.518l1.079-1.053" fill="#144067"/>
    <path id="Path_1495" data-name="Path 1495" d="M146.652,81.918a16.933,16.933,0,0,1-2.209,2.561,20.562,20.562,0,0,1-5.831,4.216,10.979,10.979,0,0,1-9.2.307c.059-.066.1-.122.156-.172.711-.693,1.427-1.381,2.132-2.08a.316.316,0,0,1,.373-.085,5.22,5.22,0,0,0,6.662-6.512.3.3,0,0,1,.031-.257c1.051-1.036,2.111-2.064,3.189-3.112.233.184.464.359.687.543a25.033,25.033,0,0,1,3.713,3.771c.107.135.2.282.294.424Z" transform="translate(-120.653 -71.72)" fill="#144067"/>
    <path id="Path_1496" data-name="Path 1496" d="M188.7,144.133a3.541,3.541,0,0,1-1.082,3.056,3.78,3.78,0,0,1-3.163,1.072l-.048-.07,4.223-4.1.07.044" transform="translate(-171.917 -134.586)" fill="#144067"/>
  </g>
</svg>
