<svg xmlns="http://www.w3.org/2000/svg" width="17.5" height="15.5" viewBox="0 0 17.5 15.5">
  <g id="like_ic" transform="translate(0.75 0.563)">
    <path id="Path_1487" data-name="Path 1487" d="M6.342.705,4.522.1,2.742.273.981,1.462l-.7,1.967.12,2.9,2.52,3.458,3.42,3.307.92,1.3.9-.411,2.48-2.464,3-3.307,1.4-2.442.2-1.707-.62-2.1L13,.4,11.583.013,9.943.273,8.583,1.2l-.56.757-.64.194Z" transform="translate(0.378 -0.013)" fill="#fff"/>
    <path id="like_ic-2" data-name="like_ic" d="M2569.333,4329.631a4.241,4.241,0,0,0-5.925,0h0l-.835.843-.836-.843a4.207,4.207,0,0,0-5.925,5.975l.835.843,5.926,5.976,5.925-5.976.836-.843a4.187,4.187,0,0,0,0-5.975Z" transform="translate(-2554.587 -4328.238)" fill="none" stroke="#fff" stroke-linecap="round" stroke-linejoin="round" stroke-width="1.5"/>
  </g>
</svg>
