<svg xmlns="http://www.w3.org/2000/svg" width="31.579" height="30" viewBox="0 0 31.579 30">
  <path id="settings_ic" d="M1242,2375.4a15.578,15.578,0,0,1,.474-3.906,4.674,4.674,0,0,0,2.526-.625,6.706,6.706,0,0,0,1.895-1.719,4.548,4.548,0,0,0,.632-2.5,4.182,4.182,0,0,0-.789-2.344,14.89,14.89,0,0,1,6.79-3.906,4.984,4.984,0,0,0,1.737,1.875,5.42,5.42,0,0,0,5.052,0,3.99,3.99,0,0,0,1.737-1.875,16.434,16.434,0,0,1,6.79,3.906,4.617,4.617,0,0,0-.789,2.344,4.548,4.548,0,0,0,.632,2.5,4.006,4.006,0,0,0,1.895,1.719,4.674,4.674,0,0,0,2.526.625,16.34,16.34,0,0,1,0,7.812,4.676,4.676,0,0,0-2.526.625,6.7,6.7,0,0,0-1.895,1.719,4.547,4.547,0,0,0-.632,2.5,4.182,4.182,0,0,0,.789,2.344,14.887,14.887,0,0,1-6.79,3.906,3.991,3.991,0,0,0-1.737-1.875,5.418,5.418,0,0,0-5.052,0,3.991,3.991,0,0,0-1.737,1.875,16.428,16.428,0,0,1-6.79-3.906,4.617,4.617,0,0,0,.789-2.344,4.547,4.547,0,0,0-.632-2.5,4.006,4.006,0,0,0-1.895-1.719,4.676,4.676,0,0,0-2.526-.625A15.581,15.581,0,0,1,1242,2375.4Zm7.579,4.688a8.477,8.477,0,0,1,.947,5.469,8.941,8.941,0,0,0,2.052,1.25,8.049,8.049,0,0,1,5.211-2.031,7.736,7.736,0,0,1,5.211,2.031,8.945,8.945,0,0,0,2.053-1.25,7.463,7.463,0,0,1,.947-5.469,6.96,6.96,0,0,1,4.421-3.437v-2.344a8.156,8.156,0,0,1-4.421-3.437,8.315,8.315,0,0,1-.947-5.469,8.961,8.961,0,0,0-2.053-1.25,8.051,8.051,0,0,1-5.211,2.031,7.313,7.313,0,0,1-5.211-2.031,8.957,8.957,0,0,0-2.052,1.25,7.464,7.464,0,0,1-.947,5.469,6.961,6.961,0,0,1-4.421,3.438v2.344a6.96,6.96,0,0,1,4.421,3.437Zm8.21,0a4.322,4.322,0,0,1-3.316-1.406,4.475,4.475,0,0,1-1.421-3.281,4.235,4.235,0,0,1,1.421-3.281,4.568,4.568,0,0,1,3.316-1.406,4.321,4.321,0,0,1,3.316,1.406,4.475,4.475,0,0,1,1.421,3.281,4.234,4.234,0,0,1-1.421,3.281A4.321,4.321,0,0,1,1257.79,2380.087Zm0-3.125a1.44,1.44,0,0,0,1.105-.469,1.5,1.5,0,0,0,0-2.187,1.537,1.537,0,0,0-2.21,0,1.5,1.5,0,0,0,0,2.187A1.44,1.44,0,0,0,1257.79,2376.962Z" transform="translate(-1242 -2360.4)" fill="#293039"/>
</svg>
