<svg xmlns="http://www.w3.org/2000/svg" width="14" height="16" viewBox="0 0 14 16">
  <path id="Path_1500" data-name="Path 1500" d="M1886.674,2370.042l.155.15.155-.15a2.35,2.35,0,0,1,.542-.376,1.688,1.688,0,0,1,1.392,0,1.386,1.386,0,0,1,.542.376,2.277,2.277,0,0,1,.387.526,1.554,1.554,0,0,1,0,1.352,1.349,1.349,0,0,1-.387.526l-2.63,2.554-2.63-2.554a1.749,1.749,0,0,1-.541-1.2,1.478,1.478,0,0,1,.541-1.2,1.854,1.854,0,0,1,1.238-.525A1.559,1.559,0,0,1,1886.674,2370.042Zm-4.486-1.277v1.5a4.391,4.391,0,0,0-3.249,1.352,4.436,4.436,0,0,0-1.392,3.155H1876a5.822,5.822,0,0,1,1.779-4.207,5.932,5.932,0,0,1,4.254-1.8Zm0-9.765a4.589,4.589,0,0,1,4.641,4.507,4.554,4.554,0,0,1-4.486,4.507h-.155a4.589,4.589,0,0,1-4.641-4.507,4.555,4.555,0,0,1,4.486-4.507Zm0,1.5a3.006,3.006,0,1,0,3.094,3A3.059,3.059,0,0,0,1882.188,2360.5Z" transform="translate(-1876 -2359)" fill="#144067"/>
</svg>
