<svg xmlns="http://www.w3.org/2000/svg" width="40" height="35" viewBox="0 0 40 35">
  <path id="Path_1503" data-name="Path 1503" d="M257.1,1692.777H259v19.444h-1.9v5.833a1.782,1.782,0,0,1-.571,1.361,1.713,1.713,0,0,1-1.333.583H220.9a1.713,1.713,0,0,1-1.333-.583,1.782,1.782,0,0,1-.571-1.361v-31.111a1.782,1.782,0,0,1,.571-1.361A1.713,1.713,0,0,1,220.9,1685H255.19a1.713,1.713,0,0,1,1.333.583,1.782,1.782,0,0,1,.571,1.361Zm-3.809,19.444H241.857a8.848,8.848,0,0,1-6.667-2.917,10,10,0,0,1-2.857-6.806,9.212,9.212,0,0,1,2.857-6.805,9.6,9.6,0,0,1,6.667-2.917h11.429v-3.889H222.81v27.222h30.476Zm1.9-3.889v-11.667H241.857a5.138,5.138,0,0,0-4,1.75,5.653,5.653,0,0,0-1.714,4.083,5.347,5.347,0,0,0,1.714,4.083,5.428,5.428,0,0,0,4,1.75Zm-13.333-7.778h5.714v3.889h-5.714Z" transform="translate(-219 -1685)" fill="#144067"/>
</svg>
